# xmcd CD database file
#
# Track frame offsets:
#	150
#	29012
#	62686
#	115962
#	134037
#	162159
#	189581
#	210547
#	231557
#	266711
#
# Disc length: 3939 seconds
#
# Revision: 0
# Processed by: cddbd v1.5.2PL0 Copyright (c) Steve Scherf et al.
# Submitted via: CDex 1.70beta2
#
DISCID=9b0f610a
DTITLE=Nicholas Payton - Into The Blue
DYEAR=2008
DGENRE=Jazz
TTITLE0=Ducilla
TTITLE1=Let It Ride
TTITLE2=Triptych
TTITLE3=Chinatown
TTITLE4=The Crimson Touch
TTITLE5=The Backward Step
TTITLE6=Nida
TTITLE7=Blue
TTITLE8=Fleur De Lis
TTITLE9=The Charleston Hop (The Blue Steps)
EXTD=YEAR: 2008
EXTT0=
EXTT1=
EXTT2=
EXTT3=
EXTT4=
EXTT5=
EXTT6=
EXTT7=
EXTT8=
EXTT9=
PLAYORDER=
